<?xml version="1.0" standalone="no"?>
<!DOCTYPE svg PUBLIC "-//W3C//DTD SVG 20010904//EN"
 "http://www.w3.org/TR/2001/REC-SVG-20010904/DTD/svg10.dtd">
<svg version="1.0" xmlns="http://www.w3.org/2000/svg"
 width="1920.000000pt" height="1920.000000pt" viewBox="0 0 1920.000000 1920.000000"
 preserveAspectRatio="xMidYMid meet">

<g transform="translate(0.000000,1920.000000) scale(0.100000,-0.100000)"
fill="#000000" stroke="none">
<path d="M1136 19169 c-288 -37 -558 -177 -764 -393 -164 -174 -267 -369 -329
-626 -17 -72 -18 -415 -21 -8515 -2 -7650 -1 -8450 13 -8550 50 -347 250 -669
535 -865 l88 -60 18 46 c10 25 24 52 31 60 48 47 167 -34 147 -100 -4 -11 -16
-34 -26 -49 -11 -16 -19 -30 -17 -31 12 -10 135 -50 204 -67 79 -19 223 -19
8610 -19 l8530 0 94 25 c483 130 836 502 935 987 15 70 16 877 16 8568 0 7691
-1 8498 -16 8568 -53 261 -184 496 -378 680 -175 165 -368 266 -626 329 -72
17 -414 18 -8525 19 -4847 1 -8479 -2 -8519 -7z m16044 -588 c58 -7 150 -21
205 -32 609 -121 1062 -575 1184 -1184 48 -242 46 126 46 -7780 0 -7906 2
-7538 -46 -7780 -122 -609 -575 -1062 -1184 -1184 -242 -48 125 -46 -7775 -46
-7900 0 -7533 -2 -7775 46 -609 122 -1062 575 -1184 1184 -48 242 -46 -126
-46 7780 0 7906 -2 7538 46 7780 118 591 551 1039 1134 1173 133 31 240 43
435 52 96 4 3478 6 7515 6 5885 -2 7361 -4 7445 -15z"/>
</g>
</svg>
